<svg width="179" height="100" viewBox="0 0 179 100" fill="none" xmlns="http://www.w3.org/2000/svg">
<g clip-path="url(#clip0_1_1161)">
<path d="M47.708 36H36V64L47.708 36Z" fill="#080829"/>
<path d="M55.9456 36H67.6383V64L55.9456 36Z" fill="#080829"/>
<path d="M51.8267 46.3198L59.2786 64H54.3895L52.1623 58.371H46.7087L51.8267 46.3198Z" fill="#080829"/>
<path d="M86.739 53.8061L88.1195 57.7647C88.1653 57.8639 88.2339 57.9096 88.356 57.9096H91.0103C91.1552 57.9096 91.1781 57.841 91.1552 57.6961L85.6711 42.4643C85.6482 42.3422 85.6254 42.3193 85.5033 42.3193H82.2083C82.1168 42.3193 82.0634 42.388 82.0634 42.4871C82.0176 43.288 81.949 43.5321 81.8498 43.7685L76.9607 57.6732C76.9378 57.841 76.9912 57.9096 77.1285 57.9096H79.5006C79.6455 57.9096 79.7142 57.8639 79.7676 57.7189L81.0718 53.8061H86.739ZM81.8269 51.2205C82.5439 49.0543 83.4897 46.2779 83.8711 44.6914H83.894C84.3669 46.3542 85.4804 49.6492 85.9839 51.2205H81.8269Z" fill="#080829"/>
<path d="M98.2054 58.1462C99.6317 58.1462 101.15 57.8868 102.69 57.2233C102.812 57.1775 102.835 57.1241 102.835 57.0097C102.789 56.5826 102.736 55.9647 102.736 55.4918V41.1524C102.736 41.0609 102.736 41.0151 102.622 41.0151H100.036C99.9368 41.0151 99.8911 41.0609 99.8911 41.1829V46.0416C99.4868 45.9958 99.2046 45.9729 98.869 45.9729C94.6968 45.9729 92.134 48.7264 92.134 52.1663C92.134 56.1554 94.7655 58.1462 98.2054 58.1462ZM99.891 55.4918C99.4639 55.6291 98.991 55.6825 98.5105 55.6825C96.6189 55.6825 95.0706 54.6147 95.0706 52.0214C95.0706 49.7256 96.6647 48.3679 98.7775 48.3679C99.2046 48.3679 99.5783 48.4137 99.891 48.5357V55.4918Z" fill="#080829"/>
<path d="M111.084 45.9731C107.522 45.9731 105.318 48.7037 105.318 52.075C105.318 55.0878 107.072 58.1464 111.031 58.1464C114.379 58.1464 116.728 55.6828 116.728 51.9987C116.728 48.7495 114.737 45.9731 111.084 45.9731ZM110.939 48.3681C112.953 48.3681 113.807 50.0995 113.807 52.075C113.807 54.5158 112.548 55.7285 111.084 55.7285C109.276 55.7285 108.208 54.2107 108.208 52.0216C108.208 49.7716 109.345 48.3681 110.939 48.3681Z" fill="#080829"/>
<path d="M119.401 41.0151C119.302 41.0151 119.234 41.0609 119.234 41.1829V57.4139C119.234 57.4826 119.302 57.6046 119.401 57.6275C120.538 57.9784 121.728 58.1462 122.956 58.1462C126.472 58.1462 129.889 55.9647 129.889 51.5714C129.889 48.3908 127.708 45.9729 124.291 45.9729C123.505 45.9729 122.773 46.095 122.132 46.3085L122.102 41.2058C122.102 41.038 122.056 41.0151 121.888 41.0151H119.401ZM126.968 51.8612C126.968 54.4927 125.168 55.7283 123.223 55.7283C122.818 55.7283 122.46 55.7054 122.132 55.6063V48.6806C122.506 48.5357 122.956 48.4137 123.787 48.4137C125.663 48.4137 126.968 49.6035 126.968 51.8612Z" fill="#080829"/>
<path d="M139.539 52.7157C140.698 52.7157 141.652 52.6928 141.98 52.6166C142.102 52.5937 142.147 52.5479 142.17 52.4488C142.239 52.1894 142.269 51.6479 142.269 50.9843C142.269 48.7266 140.912 45.9731 137.403 45.9731C133.818 45.9731 131.828 48.8944 131.828 52.1894C131.828 55.1107 133.368 58.1464 137.685 58.1464C139.302 58.1464 140.347 57.8871 141.247 57.4599C141.339 57.4142 141.385 57.3379 141.385 57.2006V55.2251C141.385 55.1107 141.316 55.0878 141.247 55.1336C140.347 55.515 139.371 55.7056 138.303 55.7056C135.885 55.7056 134.787 54.3709 134.718 52.7157H139.539ZM134.718 50.6716C134.909 49.5122 135.641 48.2537 137.281 48.2537C139.089 48.2537 139.562 49.7716 139.562 50.458C139.562 50.4809 139.562 50.5801 139.562 50.6487C139.462 50.6716 139.157 50.6716 138.257 50.6716H134.718Z" fill="#080829"/>
</g>
<defs>
<clipPath id="clip0_1_1161">
<rect width="106.269" height="28" fill="white" transform="translate(36 36)"/>
</clipPath>
</defs>
</svg>
