<svg width="178" height="100" viewBox="0 0 178 100" fill="none" xmlns="http://www.w3.org/2000/svg">
<g clip-path="url(#clip0_1_1183)">
<path d="M100.539 57.8745C95.1549 61.8433 87.3504 63.9608 80.6308 63.9608C71.2089 63.9608 62.7267 60.476 56.3096 54.6801C55.8055 54.2243 56.2572 53.6032 56.8622 53.9581C63.7875 57.9874 72.3503 60.4115 81.1955 60.4115C87.1608 60.4115 93.7231 59.1773 99.757 56.6161C100.669 56.2289 101.431 57.213 100.539 57.8745Z" fill="#080829"/>
<path d="M102.778 55.3135C102.092 54.4342 98.2284 54.8981 96.494 55.1038C95.9657 55.1683 95.885 54.7085 96.3609 54.3778C99.4384 52.2119 104.488 52.837 105.077 53.563C105.666 54.2931 104.924 59.355 102.032 61.7709C101.588 62.142 101.165 61.9444 101.362 61.4523C102.012 59.8309 103.468 56.1968 102.778 55.3135Z" fill="#080829"/>
<path d="M96.6151 39.087V36.9816C96.6151 36.663 96.8571 36.4492 97.1475 36.4492H106.573C106.876 36.4492 107.118 36.667 107.118 36.9816V38.7845C107.114 39.087 106.86 39.4823 106.408 40.1075L101.524 47.0812C103.339 47.0368 105.255 47.307 106.9 48.2347C107.271 48.4444 107.372 48.751 107.4 49.0535V51.3001C107.4 51.6066 107.061 51.9656 106.707 51.78C103.807 50.2594 99.9547 50.0941 96.7482 51.7962C96.4214 51.9736 96.0786 51.6187 96.0786 51.3122V49.1785C96.0786 48.8357 96.0826 48.2508 96.4255 47.7305L102.084 39.6154H97.1596C96.8571 39.6154 96.6151 39.4016 96.6151 39.087Z" fill="#080829"/>
<path d="M62.2305 52.2239H59.3628C59.0886 52.2037 58.8708 51.998 58.8506 51.7359V37.0181C58.8506 36.7237 59.0966 36.4898 59.4032 36.4898H62.0773C62.3556 36.5019 62.5774 36.7156 62.5976 36.9818V38.9058H62.65C63.3478 37.0464 64.6586 36.1792 66.4252 36.1792C68.2201 36.1792 69.3414 37.0464 70.148 38.9058C70.8418 37.0464 72.4188 36.1792 74.1088 36.1792C75.3107 36.1792 76.6256 36.6753 77.4282 37.7885C78.3358 39.0268 78.1502 40.8256 78.1502 42.4027L78.1462 51.6915C78.1462 51.9859 77.9002 52.2239 77.5936 52.2239H74.7299C74.4436 52.2037 74.2137 51.9738 74.2137 51.6915V43.891C74.2137 43.2698 74.2701 41.721 74.133 41.1322C73.9192 40.144 73.2779 39.8657 72.447 39.8657C71.7533 39.8657 71.0273 40.3295 70.7329 41.0717C70.4384 41.8138 70.4667 43.0561 70.4667 43.891V51.6915C70.4667 51.9859 70.2206 52.2239 69.9141 52.2239H67.0504C66.76 52.2037 66.5341 51.9738 66.5341 51.6915L66.5301 43.891C66.5301 42.2494 66.8003 39.8334 64.7635 39.8334C62.7024 39.8334 62.7831 42.1889 62.7831 43.891V51.6915C62.7831 51.9859 62.5371 52.2239 62.2305 52.2239Z" fill="#080829"/>
<path d="M115.233 36.1792C119.488 36.1792 121.791 39.8334 121.791 44.4799C121.791 48.969 119.246 52.5304 115.233 52.5304C111.054 52.5304 108.78 48.8762 108.78 44.3226C108.78 39.7407 111.083 36.1792 115.233 36.1792ZM115.257 39.1841C113.144 39.1841 113.011 42.0639 113.011 43.8587C113.011 45.6576 112.982 49.4974 115.233 49.4974C117.455 49.4974 117.56 46.3997 117.56 44.5121C117.56 43.2698 117.508 41.7856 117.133 40.6078C116.81 39.5834 116.169 39.1841 115.257 39.1841Z" fill="#080829"/>
<path d="M127.309 52.2239H124.453C124.167 52.2037 123.937 51.9738 123.937 51.6915L123.933 36.9697C123.957 36.6995 124.195 36.4898 124.486 36.4898H127.144C127.394 36.5019 127.599 36.6713 127.656 36.9012V39.1518H127.708C128.511 37.1391 129.636 36.1792 131.617 36.1792C132.903 36.1792 134.158 36.643 134.964 37.9135C135.714 39.0913 135.714 41.0717 135.714 42.4954V51.7601C135.682 52.0182 135.444 52.2239 135.162 52.2239H132.286C132.024 52.2037 131.806 52.0101 131.778 51.7601V43.766C131.778 42.1566 131.963 39.8012 129.983 39.8012C129.285 39.8012 128.644 40.269 128.325 40.9789C127.922 41.8783 127.87 42.7737 127.87 43.766V51.6915C127.866 51.9859 127.615 52.2239 127.309 52.2239Z" fill="#080829"/>
<path d="M89.1009 45.1938V44.5727C87.0277 44.5727 84.8376 45.0163 84.8376 47.4606C84.8376 48.6988 85.4789 49.5377 86.58 49.5377C87.3867 49.5377 88.1087 49.0416 88.5645 48.235C89.1291 47.2428 89.1009 46.3111 89.1009 45.1938ZM91.9928 52.1836C91.8032 52.353 91.529 52.3651 91.3152 52.2522C90.3633 51.4617 90.1939 51.0946 89.6696 50.3404C88.0966 51.9457 86.9834 52.4256 84.9425 52.4256C82.5305 52.4256 80.651 50.9373 80.651 47.9567C80.651 45.6294 81.9134 44.0443 83.7083 43.2699C85.2652 42.5842 87.4391 42.4632 89.1009 42.2737V41.9026C89.1009 41.221 89.1533 40.4143 88.754 39.8254C88.4031 39.297 87.7336 39.0792 87.1447 39.0792C86.0517 39.0792 85.0756 39.6399 84.8376 40.8015C84.7892 41.0596 84.5997 41.3137 84.3415 41.3258L81.5585 41.0274C81.3246 40.9749 81.0664 40.7854 81.131 40.4264C81.7723 37.0545 84.8175 36.0381 87.544 36.0381C88.9396 36.0381 90.7626 36.4092 91.8637 37.4659C93.2593 38.7687 93.1262 40.507 93.1262 42.3987V46.8677C93.1262 48.2108 93.6828 48.7996 94.2071 49.5256C94.3927 49.7838 94.433 50.0943 94.1991 50.288C93.6142 50.776 92.5736 51.6835 92.0009 52.1917L91.9928 52.1836Z" fill="#080829"/>
<path d="M51.5059 45.1938V44.5727C49.4328 44.5727 47.2427 45.0163 47.2427 47.4606C47.2427 48.6988 47.884 49.5377 48.9851 49.5377C49.7917 49.5377 50.5137 49.0416 50.9695 48.235C51.5342 47.2428 51.5059 46.3111 51.5059 45.1938ZM54.3978 52.1836C54.2083 52.353 53.934 52.3651 53.7202 52.2522C52.7684 51.4617 52.599 51.0946 52.0746 50.3404C50.5016 51.9457 49.3884 52.4256 47.3475 52.4256C44.9356 52.4256 43.056 50.9373 43.056 47.9567C43.056 45.6294 44.3185 44.0443 46.1133 43.2699C47.6702 42.5842 49.8442 42.4632 51.5059 42.2737V41.9026C51.5059 41.221 51.5584 40.4143 51.1591 39.8254C50.8081 39.297 50.1386 39.0792 49.5497 39.0792C48.4567 39.0792 47.4806 39.6399 47.2427 40.8015C47.1943 41.0596 47.0047 41.3137 46.7466 41.3258L43.9635 41.0274C43.7296 40.9749 43.4715 40.7854 43.536 40.4264C44.1773 37.0545 47.2225 36.0381 49.949 36.0381C51.3446 36.0381 53.1677 36.4092 54.2688 37.4659C55.6643 38.7687 55.5312 40.507 55.5312 42.3987V46.8677C55.5312 48.2108 56.0878 48.7996 56.6122 49.5256C56.7977 49.7838 56.838 50.0943 56.6041 50.288C56.0193 50.776 54.9786 51.6835 54.4059 52.1917L54.3978 52.1836Z" fill="#080829"/>
</g>
<defs>
<clipPath id="clip0_1_1183">
<rect width="92.7692" height="28" fill="white" transform="translate(43 36)"/>
</clipPath>
</defs>
</svg>
