<svg width="44" height="44" viewBox="0 0 44 44" fill="none" xmlns="http://www.w3.org/2000/svg">
<path fill-rule="evenodd" clip-rule="evenodd" d="M13.4391 3.66748H30.5606C36.7958 3.66748 40.3158 7.20398 40.3341 13.4391V30.5625C40.3341 36.7958 36.7958 40.3341 30.5606 40.3341H13.4391C7.20392 40.3341 3.66742 36.7958 3.66742 30.5625V13.4391C3.66742 7.20398 7.20392 3.66748 13.4391 3.66748ZM22.0906 32.7441C22.8808 32.7441 23.5389 32.1575 23.6123 31.3691V12.6875C23.6856 12.1191 23.4124 11.549 22.9174 11.2391C22.4023 10.9275 21.7789 10.9275 21.2858 11.2391C20.7889 11.549 20.5158 12.1191 20.5689 12.6875V31.3691C20.6624 32.1575 21.3206 32.7441 22.0906 32.7441ZM30.5258 32.7441C31.2958 32.7441 31.9539 32.1575 32.0474 31.3691V25.3558C32.1006 24.7673 31.8274 24.2191 31.3306 23.9075C30.8374 23.5958 30.2141 23.5958 29.7008 23.9075C29.2039 24.2191 28.9308 24.7673 29.0041 25.3558V31.3691C29.0774 32.1575 29.7356 32.7441 30.5258 32.7441ZM15.0689 31.3691C14.9956 32.1575 14.3374 32.7441 13.5473 32.7441C12.7589 32.7441 12.0989 32.1575 12.0274 31.3691V18.7008C11.9724 18.1306 12.2456 17.5641 12.7424 17.2525C13.2356 16.9408 13.8608 16.9408 14.3558 17.2525C14.8489 17.5641 15.1258 18.1306 15.0689 18.7008V31.3691Z" fill="#080829"/>
</svg>
