<svg width="44" height="44" viewBox="0 0 44 44" fill="none" xmlns="http://www.w3.org/2000/svg">
<path fill-rule="evenodd" clip-rule="evenodd" d="M5.45538 5.45538C5.37724 5.53352 5.33334 5.6395 5.33334 5.75001V6.16668C5.33334 6.38769 5.24554 6.59965 5.08926 6.75594C4.93298 6.91222 4.72102 7.00001 4.50001 7.00001C4.27899 7.00001 4.06703 6.91222 3.91075 6.75594C3.75447 6.59965 3.66667 6.38769 3.66667 6.16668V5.75001C3.66667 5.6395 3.62277 5.53352 3.54463 5.45538C3.46649 5.37724 3.36051 5.33334 3.25 5.33334H2.83334C2.61232 5.33334 2.40036 5.24554 2.24408 5.08926C2.0878 4.93298 2 4.72102 2 4.50001C2 4.27899 2.0878 4.06703 2.24408 3.91075C2.40036 3.75447 2.61232 3.66667 2.83334 3.66667H3.25C3.36051 3.66667 3.46649 3.62277 3.54463 3.54463C3.62277 3.46649 3.66667 3.36051 3.66667 3.25V2.83334C3.66667 2.61232 3.75447 2.40036 3.91075 2.24408C4.06703 2.0878 4.27899 2 4.50001 2C4.72102 2 4.93298 2.0878 5.08926 2.24408C5.24554 2.40036 5.33334 2.61232 5.33334 2.83334V3.25C5.33334 3.36051 5.37724 3.46649 5.45538 3.54463C5.53352 3.62277 5.6395 3.66667 5.75001 3.66667H6.16668C6.38769 3.66667 6.59965 3.75447 6.75594 3.91075C6.91222 4.06703 7.00001 4.27899 7.00001 4.50001C7.00001 4.72102 6.91222 4.93298 6.75594 5.08926C6.59965 5.24554 6.38769 5.33334 6.16668 5.33334H5.75001C5.6395 5.33334 5.53352 5.37724 5.45538 5.45538ZM22.0001 32.8333C25.581 32.8605 29.1481 32.3847 32.5967 31.42C32.721 31.3832 32.8522 31.3758 32.9798 31.3986C33.1073 31.4214 33.2279 31.4736 33.3318 31.5511C33.4356 31.6286 33.52 31.7292 33.5782 31.8451C33.6363 31.9609 33.6666 32.0887 33.6668 32.2183V38.2633C33.6667 38.5327 33.6013 38.7981 33.4762 39.0367C33.351 39.2753 33.17 39.48 32.9484 39.6333C31.9251 40.345 28.8067 42 22.0001 42C15.1934 42 12.075 40.345 11.05 39.6333C10.8288 39.4798 10.648 39.275 10.5232 39.0365C10.3984 38.7979 10.3333 38.5326 10.3334 38.2633V32.2183C10.3335 32.0887 10.3638 31.9609 10.422 31.8451C10.4801 31.7292 10.5645 31.6286 10.6684 31.5511C10.7722 31.4736 10.8928 31.4214 11.0204 31.3986C11.1479 31.3758 11.2791 31.3832 11.4034 31.42C14.852 32.3847 18.4191 32.8605 22.0001 32.8333ZM37.8334 11.1667H37.4168C37.3063 11.1667 37.2003 11.1228 37.1221 11.0447C37.044 10.9665 37.0001 10.8605 37.0001 10.75V10.3334C37.0001 10.1123 36.9123 9.90038 36.756 9.7441C36.5997 9.58782 36.3878 9.50002 36.1668 9.50002C35.9457 9.50002 35.7338 9.58782 35.5775 9.7441C35.4212 9.90038 35.3334 10.1123 35.3334 10.3334V10.75C35.3334 10.8605 35.2895 10.9665 35.2114 11.0447C35.1332 11.1228 35.0273 11.1667 34.9168 11.1667H34.5001C34.2791 11.1667 34.0671 11.2545 33.9108 11.4108C33.7545 11.5671 33.6668 11.779 33.6668 12C33.6668 12.221 33.7545 12.433 33.9108 12.5893C34.0671 12.7456 34.2791 12.8334 34.5001 12.8334H34.9168C35.0273 12.8334 35.1332 12.8773 35.2114 12.9554C35.2895 13.0335 35.3334 13.1395 35.3334 13.25V13.6667C35.3334 13.8877 35.4212 14.0997 35.5775 14.256C35.7338 14.4122 35.9457 14.5 36.1668 14.5C36.3878 14.5 36.5997 14.4122 36.756 14.256C36.9123 14.0997 37.0001 13.8877 37.0001 13.6667V13.25C37.0001 13.1395 37.044 13.0335 37.1221 12.9554C37.2003 12.8773 37.3063 12.8334 37.4168 12.8334H37.8334C38.0544 12.8334 38.2664 12.7456 38.4227 12.5893C38.579 12.433 38.6668 12.221 38.6668 12C38.6668 11.779 38.579 11.5671 38.4227 11.4108C38.2664 11.2545 38.0544 11.1667 37.8334 11.1667ZM41.4901 2.46657C41.6478 2.61838 41.7741 2.79977 41.8617 3.00039C41.9494 3.20108 41.9966 3.41708 42.0008 3.63603C42.0049 3.85499 41.9658 4.07261 41.8858 4.27646C41.8058 4.48032 41.6864 4.6664 41.5344 4.82407C41.3824 4.98175 41.2008 5.10793 41.0001 5.1954L21.8334 13.5288C21.6232 13.6208 21.3961 13.6679 21.1667 13.6671C20.7841 13.6666 20.4134 13.5346 20.1167 13.2931C19.82 13.0517 19.6153 12.7155 19.5372 12.341C19.459 11.9665 19.512 11.5766 19.6873 11.2366C19.8627 10.8966 20.1496 10.6272 20.5 10.4737L39.6667 2.14039C39.8673 2.05269 40.0832 2.00537 40.3021 2.00113C40.521 1.99689 40.7386 2.03581 40.9424 2.11567C41.1462 2.19553 41.3323 2.31477 41.4901 2.46657ZM22.0001 17C12.795 17 5.33334 19.985 5.33334 23.6667C5.33334 27.3484 12.795 30.3334 22.0001 30.3334C31.2051 30.3334 38.6668 27.3484 38.6668 23.6667C38.6668 19.985 31.2051 17 22.0001 17ZM22.0001 26.1667C15.7967 26.1667 12 24.5484 12 23.6667C12 22.7851 15.7967 21.1667 22.0001 21.1667C28.2034 21.1667 32.0001 22.7851 32.0001 23.6667C32.0001 24.5484 28.2034 26.1667 22.0001 26.1667ZM5.9367 10.9902C5.81487 10.7928 5.75024 10.5654 5.75001 10.3334C5.75099 10.1037 5.8151 9.87864 5.93532 9.68288C6.05553 9.48712 6.22724 9.32817 6.43168 9.22339L8.39835 8.24172C9.04525 7.91694 9.56885 7.39042 9.89002 6.74172L10.8734 4.77505C10.9884 4.5809 11.152 4.42006 11.3481 4.30834C11.5442 4.19661 11.766 4.13786 11.9917 4.13786C12.2174 4.13786 12.4392 4.19661 12.6353 4.30834C12.8313 4.42006 12.995 4.5809 13.11 4.77505L14.0934 6.74172C14.4181 7.38862 14.9447 7.91222 15.5934 8.23339L17.575 9.21506C17.7828 9.31881 17.9576 9.47841 18.0798 9.67594C18.2019 9.87348 18.2666 10.1011 18.2666 10.3334C18.2666 10.5656 18.2019 10.7933 18.0798 10.9908C17.9576 11.1884 17.7828 11.348 17.575 11.4517L15.61 12.4334C14.96 12.7567 14.4333 13.2834 14.11 13.9334L13.1267 15.9001C13.0229 16.1079 12.8633 16.2826 12.6658 16.4048C12.4683 16.527 12.2406 16.5917 12.0084 16.5917C11.7761 16.5917 11.5484 16.527 11.3509 16.4048C11.1534 16.2826 10.9938 16.1079 10.89 15.9001L9.90669 13.9334C9.58337 13.2834 9.05669 12.7567 8.40668 12.4334L6.44001 11.4517C6.23276 11.3475 6.05852 11.1877 5.9367 10.9902Z" fill="#080829"/>
</svg>
