<svg width="179" height="100" viewBox="0 0 179 100" fill="none" xmlns="http://www.w3.org/2000/svg">
<g clip-path="url(#clip0_1_1172)">
<path d="M32.5196 41.1022C30.9448 41.1022 30.4723 41.7952 30.4723 43.3384V45.8896H34.6928L34.2833 50.047H30.4723V62.6138H25.4015V50.047H22V45.9211H25.4015V43.4329C25.4015 39.2125 27.1023 37.0078 31.7952 37.0078C32.7715 37.0078 33.7794 37.0708 34.7557 37.1968V41.1022" fill="#080829"/>
<path d="M35.0392 53.7318C35.0392 49.0705 37.2439 45.543 41.9052 45.543C44.4249 45.543 45.9682 46.8343 46.7241 48.4721V45.9209H51.5744V62.6451H46.6926V60.1255C45.9997 61.7317 44.3934 62.9916 41.8737 62.9916C37.2439 62.9916 35.0077 59.4955 35.0077 54.8027M40.11 54.8657C40.11 57.3538 41.0234 59.0231 43.3855 59.0231C45.4643 59.0231 46.5036 57.5113 46.5036 55.1177V53.4169C46.5036 51.0232 45.4328 49.5114 43.3855 49.5114C41.0234 49.5114 40.11 51.1492 40.11 53.6689V54.8657Z" fill="#080829"/>
<path d="M62.0939 45.543C64.0467 45.543 65.9364 45.9524 66.9443 46.6768L65.8104 50.2673C64.7711 49.7634 63.6057 49.5114 62.4404 49.5114C59.7003 49.5114 58.5034 51.0862 58.5034 53.7948V54.7712C58.5034 57.4798 59.7003 59.0546 62.4404 59.0546C63.6057 59.0546 64.7711 58.7711 65.8104 58.2672L66.9443 61.8577C65.9364 62.5506 64.0782 62.9916 62.0939 62.9916C56.1412 62.9916 53.4641 59.8105 53.4641 54.6767V53.8893C53.4641 48.7555 56.1412 45.543 62.0939 45.543Z" fill="#080829"/>
<path d="M67.6057 54.8972V53.4169C67.6057 48.661 70.3143 45.543 75.8261 45.543C81.0229 45.543 83.3221 48.6925 83.3221 53.3539V56.031H72.6765C72.771 58.3302 73.8104 59.3381 76.6135 59.3381C78.4402 59.3381 80.267 58.9916 81.9992 58.3302L82.9126 61.7947C81.5898 62.4876 78.8497 63.0231 76.4245 63.0231C69.9994 62.9916 67.6057 59.8105 67.6057 54.8972ZM72.6765 52.6925H78.7867V52.283C78.7867 50.4563 78.0623 49.0075 75.8261 49.0075C73.5584 49.0075 72.6765 50.4563 72.6765 52.6925Z" fill="#080829"/>
<path d="M102.093 54.8029C102.093 59.4642 99.8573 62.9917 95.1959 62.9917C92.6763 62.9917 90.9125 61.7319 90.2196 60.1256V62.6453H85.4323V37.5117L90.5031 37.0708V48.2518C91.2275 46.7715 92.8652 45.5746 95.2274 45.5746C99.8573 45.5746 102.125 49.0706 102.125 53.7635M97.0227 53.6375C97.0227 51.2753 96.1093 49.5116 93.6841 49.5116C91.6054 49.5116 90.5031 50.9919 90.5031 53.3856V55.1493C90.5031 57.543 91.6369 59.0233 93.6841 59.0233C96.1093 59.0233 97.0227 57.2595 97.0227 54.8973V53.6375Z" fill="#080829"/>
<path d="M103.763 54.6767V53.8263C103.763 49.0075 106.503 45.543 112.078 45.543C117.652 45.543 120.393 49.0075 120.393 53.8263V54.6767C120.393 59.4955 117.652 62.9601 112.078 62.9601C106.503 62.9601 103.763 59.527 103.763 54.6767ZM115.353 53.4799C115.353 51.2752 114.44 49.5114 112.078 49.5114C109.715 49.5114 108.802 51.2752 108.802 53.4799V55.0547C108.802 57.2594 109.715 59.0231 112.078 59.0231C114.44 59.0231 115.353 57.2594 115.353 55.0547V53.4799Z" fill="#080829"/>
<path d="M122.125 54.6767V53.8263C122.125 49.0075 124.865 45.543 130.44 45.543C136.014 45.543 138.754 49.0075 138.754 53.8263V54.6767C138.754 59.4955 136.014 62.9601 130.44 62.9601C124.865 62.9601 122.125 59.527 122.125 54.6767ZM133.715 53.4799C133.715 51.2752 132.802 49.5114 130.44 49.5114C128.077 49.5114 127.164 51.2752 127.164 53.4799V55.0547C127.164 57.2594 128.077 59.0231 130.44 59.0231C132.802 59.0231 133.715 57.2594 133.715 55.0547V53.4799Z" fill="#080829"/>
<path d="M145.715 53.8897L150.723 45.8898H156.077L150.849 54.1732L156.298 62.6455H150.912L145.715 54.4567V62.6455H140.676V37.512L145.715 37.0396" fill="#080829"/>
</g>
<defs>
<clipPath id="clip0_1_1172">
<rect width="134.298" height="26" fill="white" transform="translate(22 37)"/>
</clipPath>
</defs>
</svg>
