<svg width="179" height="100" viewBox="0 0 179 100" fill="none" xmlns="http://www.w3.org/2000/svg">
<g clip-path="url(#clip0_1_1147)">
<path d="M53.074 34.0024H53.9458C56.9725 34.0682 59.9499 35.2855 62.0884 37.4404C61.2988 38.2464 60.4928 39.0195 59.7196 39.8256C58.5188 38.7399 57.0712 37.901 55.4921 37.6049C53.1563 37.1114 50.6395 37.5555 48.682 38.888C46.5435 40.2862 45.096 42.6549 44.7834 45.1881C44.438 47.6885 45.1453 50.3204 46.7738 52.2614C48.3365 54.1531 50.7217 55.3375 53.1892 55.4197C55.4921 55.5513 57.8937 54.844 59.5716 53.2319C60.8875 52.0969 61.4962 50.3697 61.6936 48.6919C58.9629 48.6919 56.2323 48.7083 53.5017 48.6919V45.3033H64.9999C65.5921 48.9386 64.7367 53.0346 61.9732 55.6336C60.1309 57.4759 57.5812 58.5616 54.9822 58.7754C52.4654 59.0222 49.8664 58.5451 47.6292 57.3279C44.9479 55.8968 42.8095 53.4787 41.7567 50.6329C40.7698 48.0174 40.7533 45.0565 41.6745 42.4246C42.5134 40.023 44.1255 37.901 46.1981 36.4205C48.1885 34.9565 50.6066 34.1505 53.074 34.0024Z" fill="#080829"/>
<path d="M119.037 34.8584H122.557V58.3483C121.389 58.3483 120.205 58.3648 119.037 58.3319C119.053 50.5184 119.037 42.6884 119.037 34.8584Z" fill="#080829"/>
<path d="M72.8299 43.0009C75.0012 42.5897 77.3535 43.0502 79.1465 44.3498C80.775 45.5012 81.91 47.3107 82.2554 49.2846C82.6996 51.5711 82.1403 54.0714 80.6598 55.8809C79.0642 57.9042 76.4488 58.9898 73.8991 58.8253C71.5632 58.6938 69.2932 57.5258 67.9114 55.6177C66.3487 53.5122 65.9704 50.617 66.8258 48.1496C67.6812 45.5012 70.0992 43.4779 72.8299 43.0009ZM73.3233 46.1263C72.4351 46.3566 71.6126 46.8665 71.0204 47.5903C69.4248 49.4985 69.5235 52.6074 71.2836 54.384C72.287 55.4038 73.8004 55.8809 75.1986 55.6012C76.4981 55.3709 77.6331 54.4991 78.2582 53.3477C79.3439 51.3902 79.0313 48.6924 77.3699 47.1626C76.3007 46.1757 74.738 45.7644 73.3233 46.1263Z" fill="#080829"/>
<path d="M90.2663 43.0006C92.7502 42.5236 95.4644 43.2145 97.3232 44.9581C100.35 47.6723 100.679 52.7552 98.0963 55.8806C96.5336 57.8546 94.0004 58.9402 91.5001 58.8251C89.1149 58.7593 86.7626 57.5749 85.3479 55.6174C83.7523 53.4625 83.4069 50.5016 84.3116 47.9849C85.2163 45.4187 87.5851 43.4612 90.2663 43.0006ZM90.7598 46.1261C89.8716 46.3564 89.0491 46.8663 88.4569 47.5736C86.8777 49.4489 86.9435 52.5085 88.6378 54.3015C89.6413 55.3707 91.204 55.8971 92.6515 55.601C93.9346 55.3542 95.0861 54.4989 95.7111 53.3474C96.7804 51.3735 96.4678 48.6757 94.79 47.1459C93.7207 46.159 92.158 45.7642 90.7598 46.1261Z" fill="#080829"/>
<path d="M105.055 43.9547C106.946 42.7704 109.463 42.4414 111.503 43.4613C112.144 43.7409 112.671 44.2179 113.181 44.695C113.197 44.2508 113.181 43.7902 113.197 43.3297C114.299 43.3461 115.401 43.3297 116.52 43.3461V57.8546C116.503 60.0424 115.944 62.3618 114.365 63.9574C112.638 65.7175 109.989 66.2603 107.604 65.8984C105.055 65.5201 102.834 63.6613 101.847 61.309C102.834 60.832 103.87 60.4536 104.89 60.0095C105.466 61.3583 106.634 62.5098 108.098 62.773C109.562 63.0362 111.256 62.6743 112.21 61.457C113.23 60.2069 113.23 58.4961 113.181 56.9663C112.424 57.7066 111.552 58.3645 110.499 58.6113C108.213 59.2528 105.696 58.4632 103.936 56.917C102.159 55.3707 101.107 52.9855 101.205 50.6168C101.255 47.9355 102.768 45.353 105.055 43.9547ZM108.46 46.0603C107.456 46.2248 106.519 46.7841 105.877 47.5572C104.331 49.3995 104.331 52.344 105.893 54.1535C106.782 55.2227 108.213 55.8149 109.595 55.6668C110.894 55.5352 112.095 54.7127 112.736 53.5777C113.822 51.6531 113.641 49.0376 112.177 47.3598C111.272 46.3235 109.825 45.8135 108.46 46.0603Z" fill="#080829"/>
<path d="M126.784 44.7937C128.758 42.9513 131.801 42.3263 134.335 43.2968C136.736 44.2015 138.266 46.488 139.039 48.8403C135.47 50.3207 131.917 51.7847 128.347 53.2652C128.841 54.2028 129.597 55.0582 130.617 55.4036C132.048 55.9136 133.759 55.7326 134.96 54.7786C135.437 54.4167 135.815 53.9396 136.177 53.479C137.082 54.0877 137.986 54.6799 138.891 55.2885C137.608 57.2131 135.453 58.5619 133.134 58.7758C130.568 59.0883 127.837 58.1014 126.176 56.0945C123.445 52.9362 123.708 47.6395 126.784 44.7937ZM128.544 47.8368C127.985 48.6429 127.755 49.6298 127.771 50.6004C130.157 49.6134 132.542 48.6264 134.927 47.623C134.532 46.7018 133.578 46.1425 132.608 45.9945C131.045 45.7149 129.416 46.5538 128.544 47.8368Z" fill="#080829"/>
</g>
<defs>
<clipPath id="clip0_1_1147">
<rect width="98.0392" height="32" fill="white" transform="translate(41 34)"/>
</clipPath>
</defs>
</svg>
