<svg width="44" height="44" viewBox="0 0 44 44" fill="none" xmlns="http://www.w3.org/2000/svg">
<path d="M16.8763 5.66947C14.6356 3.44351 11.0028 3.44351 8.7622 5.66947C7.13831 7.28272 6.69132 9.62241 7.42123 11.6356C5.81715 13.509 4.64628 15.755 4.04323 18.2224C3.84532 19.0322 4.34566 19.848 5.16076 20.0446C5.97587 20.2413 6.79708 19.7442 6.99499 18.9344C7.42343 17.1814 8.20426 15.5677 9.26388 14.1743C11.5159 15.9449 14.7961 15.797 16.8763 13.7304C18.1573 12.4578 18.7059 10.7332 18.5222 9.0734C18.9038 9.03893 19.2896 9.02103 19.679 9.02103C21.0292 9.02103 22.3307 9.22543 23.5546 9.60221C24.3558 9.84886 25.2065 9.40356 25.4548 8.6076C25.7031 7.81165 25.2548 6.96646 24.4536 6.71981C22.9438 6.25501 21.3394 6.00342 19.679 6.00342C18.8788 6.00342 18.0949 6.06432 17.3307 6.17736C17.1911 6.00143 17.0397 5.83177 16.8763 5.66947Z" fill="#080829"/>
<path d="M28.8413 10.6415C29.4314 10.0494 30.393 10.0447 30.9891 10.631C32.6088 12.2243 33.8974 14.1557 34.7271 16.3189C36.037 16.424 37.3175 16.9743 38.3195 17.9698C40.5602 20.1957 40.5602 23.8047 38.3195 26.0307C37.3176 27.026 36.0373 27.5763 34.7276 27.6815C33.8984 29.8454 32.6083 31.7766 30.9891 33.3694C30.393 33.9557 29.4314 33.951 28.8413 33.3589C28.2511 32.7668 28.2558 31.8114 28.8518 31.2251C30.0485 30.048 31.0193 28.6498 31.6897 27.0967C31.1543 26.8299 30.6522 26.4745 30.2054 26.0307C27.9648 23.8047 27.9648 20.1957 30.2054 17.9698C30.6521 17.5261 31.154 17.1708 31.6892 16.904C31.0182 15.3503 30.0482 13.9521 28.8518 12.7753C28.2558 12.189 28.2511 11.2337 28.8413 10.6415Z" fill="#080829"/>
<path d="M24.4536 37.2805C25.2548 37.0338 25.7031 36.1886 25.4548 35.3927C25.2065 34.5967 24.3558 34.1514 23.5546 34.3981C22.3307 34.7749 21.0292 34.9793 19.679 34.9793C19.2896 34.9793 18.9038 34.9614 18.5222 34.9269C18.706 33.267 18.1573 31.5422 16.8763 30.2696C14.7963 28.2033 11.5168 28.0551 9.26476 29.825C8.2055 28.4318 7.42492 26.8184 6.99658 25.0658C6.79868 24.256 5.97747 23.759 5.16236 23.9556C4.34726 24.1522 3.84692 24.968 4.04483 25.7778C4.64773 28.2446 5.81817 30.4901 7.42165 32.3633C6.69115 34.3767 7.138 36.7169 8.7622 38.3305C11.0028 40.5565 14.6356 40.5565 16.8763 38.3305C17.0396 38.1683 17.1909 37.9987 17.3304 37.8229C18.0947 37.936 18.8787 37.9969 19.679 37.9969C21.3394 37.9969 22.9438 37.7453 24.4536 37.2805Z" fill="#080829"/>
</svg>
