<svg width="178" height="100" viewBox="0 0 178 100" fill="none" xmlns="http://www.w3.org/2000/svg">
<g clip-path="url(#clip0_1_1145)">
<path d="M154.086 48.6674V46.362H151.223V42.7781L151.127 42.8078L148.438 43.6305L148.385 43.6466V46.3622H144.141V44.8494C144.141 44.1449 144.298 43.6059 144.609 43.2464C144.917 42.8912 145.358 42.7106 145.92 42.7106C146.325 42.7106 146.743 42.8059 147.165 42.9937L147.27 43.0408V40.613L147.22 40.5947C146.827 40.4535 146.293 40.3823 145.63 40.3823C144.795 40.3823 144.037 40.564 143.375 40.9242C142.713 41.2848 142.192 41.7996 141.827 42.4542C141.464 43.108 141.279 43.8632 141.279 44.6988V46.362H139.286V48.6674H141.279V58.3794H144.141V48.6674H148.385V54.8392C148.385 57.381 149.584 58.6692 151.949 58.6692C152.337 58.6692 152.746 58.6236 153.164 58.5345C153.589 58.4429 153.878 58.3515 154.049 58.2539L154.086 58.2315V55.9049L153.97 55.9819C153.815 56.0853 153.621 56.1699 153.394 56.2328C153.167 56.2968 152.976 56.3289 152.829 56.3289C152.275 56.3289 151.865 56.1797 151.611 55.8851C151.354 55.5879 151.223 55.0681 151.223 54.341V48.6674H154.086ZM132.895 56.3293C131.857 56.3293 131.038 55.9849 130.461 55.3065C129.88 54.6246 129.586 53.6525 129.586 52.4174C129.586 51.1432 129.88 50.1458 130.461 49.4519C131.038 48.7626 131.849 48.4128 132.872 48.4128C133.864 48.4128 134.654 48.7469 135.22 49.4064C135.789 50.0694 136.077 51.0587 136.077 52.3478C136.077 53.6528 135.806 54.6552 135.271 55.3258C134.739 55.9912 133.94 56.3293 132.895 56.3293ZM133.023 46.0725C131.041 46.0725 129.467 46.6532 128.345 47.7984C127.223 48.9437 126.655 50.5287 126.655 52.5096C126.655 54.3912 127.21 55.9046 128.305 57.0072C129.399 58.1102 130.889 58.6689 132.733 58.6689C134.654 58.6689 136.196 58.0801 137.318 56.9191C138.44 55.7593 139.008 54.1893 139.008 52.2546C139.008 50.3436 138.475 48.8189 137.422 47.7237C136.37 46.6279 134.889 46.0725 133.023 46.0725ZM122.041 46.0725C120.693 46.0725 119.578 46.4173 118.726 47.0971C117.869 47.781 117.434 48.6779 117.434 49.7632C117.434 50.3274 117.528 50.8286 117.713 51.2536C117.899 51.6801 118.186 52.0555 118.568 52.3707C118.947 52.6832 119.532 53.0106 120.307 53.3438C120.959 53.612 121.445 53.8388 121.754 54.0176C122.056 54.1929 122.27 54.369 122.391 54.5406C122.509 54.7085 122.568 54.9382 122.568 55.2218C122.568 56.0292 121.964 56.422 120.719 56.422C120.258 56.422 119.732 56.3256 119.155 56.1357C118.583 55.9486 118.042 55.6746 117.553 55.3234L117.434 55.2381V57.9933L117.478 58.0136C117.883 58.2005 118.393 58.3581 118.995 58.4821C119.595 58.6063 120.141 58.6694 120.615 58.6694C122.078 58.6694 123.256 58.323 124.115 57.6391C124.98 56.9505 125.419 56.0325 125.419 54.9096C125.419 54.0995 125.183 53.4049 124.717 52.8447C124.255 52.289 123.454 51.7788 122.335 51.3279C121.444 50.9703 120.874 50.6735 120.638 50.4456C120.411 50.2255 120.296 49.9141 120.296 49.5199C120.296 49.1704 120.438 48.8904 120.73 48.6637C121.025 48.4358 121.434 48.3199 121.948 48.3199C122.425 48.3199 122.913 48.3953 123.398 48.5429C123.883 48.6905 124.308 48.8882 124.664 49.13L124.781 49.2099V46.5964L124.736 46.5771C124.408 46.4365 123.976 46.3161 123.45 46.2185C122.928 46.1215 122.453 46.0725 122.041 46.0725ZM109.974 56.3293C108.936 56.3293 108.117 55.9849 107.54 55.3065C106.959 54.6246 106.665 53.6528 106.665 52.4174C106.665 51.1432 106.959 50.1458 107.54 49.4519C108.117 48.7626 108.928 48.4128 109.951 48.4128C110.943 48.4128 111.733 48.7469 112.299 49.4064C112.868 50.0694 113.156 51.0587 113.156 52.3478C113.156 53.6528 112.885 54.6552 112.35 55.3258C111.818 55.9912 111.019 56.3293 109.974 56.3293ZM110.102 46.0725C108.12 46.0725 106.546 46.6532 105.424 47.7984C104.303 48.9437 103.734 50.5287 103.734 52.5096C103.734 54.392 104.289 55.9046 105.384 57.0072C106.479 58.1102 107.969 58.6689 109.812 58.6689C111.733 58.6689 113.276 58.0801 114.397 56.9191C115.519 55.7593 116.087 54.1893 116.087 52.2546C116.087 50.3436 115.554 48.8189 114.501 47.7237C113.448 46.6279 111.968 46.0725 110.102 46.0725ZM99.3896 48.4432V46.362H96.5629V58.3791H99.3896V52.2319C99.3896 51.1867 99.6266 50.3279 100.094 49.6793C100.556 49.0384 101.171 48.7137 101.922 48.7137C102.177 48.7137 102.463 48.7556 102.772 48.8387C103.079 48.9212 103.301 49.0109 103.432 49.1052L103.55 49.1913V46.3415L103.505 46.3218C103.241 46.21 102.869 46.1536 102.398 46.1536C101.687 46.1536 101.052 46.3818 100.507 46.8312C100.029 47.2262 99.6838 47.7678 99.4197 48.4432H99.3896ZM91.5006 46.0725C90.2037 46.0725 89.047 46.3506 88.0631 46.8988C87.0772 47.4483 86.3147 48.2327 85.7959 49.2302C85.2795 50.2252 85.0172 51.3875 85.0172 52.6837C85.0172 53.8192 85.2715 54.8611 85.774 55.7795C86.2768 56.6993 86.9884 57.419 87.8893 57.9181C88.7888 58.4166 89.8285 58.6693 90.9797 58.6693C92.3231 58.6693 93.47 58.4007 94.3896 57.871L94.4268 57.8497V55.2599L94.308 55.3467C93.8914 55.6501 93.4259 55.8923 92.925 56.0668C92.4254 56.2412 91.9699 56.3293 91.5705 56.3293C90.4613 56.3293 89.5709 55.9822 88.9245 55.298C88.2768 54.6129 87.9484 53.6508 87.9484 52.4401C87.9484 51.2219 88.2909 50.2351 88.9659 49.507C89.6388 48.781 90.5309 48.4128 91.6171 48.4128C92.5463 48.4128 93.4517 48.7274 94.3082 49.3487L94.4268 49.4348V46.7061L94.3885 46.6845C94.0662 46.5041 93.6265 46.3551 93.0807 46.2421C92.5372 46.1293 92.0057 46.0725 91.5006 46.0725ZM83.0704 46.3622H80.2436V58.3791H83.0704V46.3622ZM81.6859 41.2428C81.2206 41.2428 80.8148 41.4012 80.4815 41.7151C80.1467 42.0298 79.9769 42.4261 79.9769 42.8937C79.9769 43.354 80.1447 43.7431 80.4763 44.0495C80.8057 44.3549 81.2128 44.5098 81.686 44.5098C82.1591 44.5098 82.5677 44.3549 82.9011 44.05C83.2366 43.7431 83.4068 43.3542 83.4068 42.8937C83.4068 42.4424 83.2412 42.0502 82.9149 41.7277C82.5889 41.4059 82.1752 41.2428 81.6859 41.2428ZM74.6329 45.4755V58.3791H77.5177V41.6107H73.525L68.4499 54.0658L63.5248 41.6107H59.3695V58.379H62.0805V45.4743H62.1736L67.3743 58.3791H69.4202L74.5398 45.4755H74.6329Z" fill="#080829"/>
<path d="M36.298 49.3053H23V36.0073H36.298V49.3053Z" fill="#080829"/>
<path d="M50.9805 49.3053H37.6827V36.0073H50.9805V49.3053Z" fill="#080829"/>
<path d="M36.2976 63.9927H23V50.6948H36.2976V63.9927Z" fill="#080829"/>
<path d="M50.9805 63.9927H37.6827V50.6948H50.9805V63.9927Z" fill="#080829"/>
</g>
<defs>
<clipPath id="clip0_1_1145">
<rect width="131.086" height="28" fill="white" transform="translate(23 36)"/>
</clipPath>
</defs>
</svg>
