<svg width="44" height="44" viewBox="0 0 44 44" fill="none" xmlns="http://www.w3.org/2000/svg">
<path fill-rule="evenodd" clip-rule="evenodd" d="M42 8C42 4.68629 39.3137 2 36 2H26C22.6863 2 20 4.68629 20 8V12H10C7.23858 12 5 14.2386 5 17V37H3C2.44772 37 2 37.4477 2 38V39C2 40.6569 3.34315 42 5 42H37C38.6569 42 40 40.6569 40 39V38C40 37.4477 39.5523 37 39 37H37V32.917C39.8377 32.441 42 29.973 42 27V8ZM34 33H26C22.6863 33 20 30.3137 20 27V15H10C8.89543 15 8 15.8954 8 17V34C8 34.5523 8.44772 35 9 35H33C33.5523 35 34 34.5523 34 34V33ZM35.8678 4.99932C35.378 4.9955 35 4.99255 35 5.5C35 6.60457 34.1046 7 33 7H29C27.8954 7 27 6.60457 27 5.5C27 4.99255 26.622 4.9955 26.1322 4.99932C26.089 4.99966 26.0448 5 26 5C24.3431 5 23 6.34315 23 8V27C23 28.6569 24.3431 30 26 30H36C37.6569 30 39 28.6569 39 27V8C39 6.34315 37.6569 5 36 5C35.9552 5 35.911 4.99966 35.8678 4.99932Z" fill="#080829"/>
</svg>
