<svg width="179" height="100" viewBox="0 0 179 100" fill="none" xmlns="http://www.w3.org/2000/svg">
<path d="M85.9932 55.8251V47.3843H86.1421L92.2229 55.8251H94.1364V43.4296H92.0103V51.8492H91.8614L85.7806 43.4296H83.8671V55.8251H85.9932ZM100.153 56.0165C102.96 56.0165 104.682 54.188 104.682 51.1263C104.682 48.0859 102.96 46.2361 100.153 46.2361C97.3682 46.2361 95.6247 48.0859 95.6247 51.1263C95.646 54.188 97.3469 56.0165 100.153 56.0165ZM100.153 54.2305C98.6651 54.2305 97.8147 53.1036 97.8147 51.1263C97.8147 49.1702 98.6651 48.0221 100.153 48.0221C101.642 48.0221 102.492 49.1702 102.492 51.1263C102.492 53.1036 101.642 54.2305 100.153 54.2305ZM106.617 44.1312V46.4913H105.129V48.1922H106.617V53.3162C106.617 55.1447 107.467 55.8676 109.636 55.8676C110.04 55.8676 110.444 55.8251 110.763 55.7613V54.1029C110.508 54.1242 110.338 54.1454 110.04 54.1454C109.147 54.1454 108.743 53.7415 108.743 52.806V48.1922H110.763V46.4913H108.743V44.1312H106.617ZM112.039 55.8251H114.165V46.4275H112.039V55.8251ZM113.102 44.8754C113.803 44.8754 114.377 44.3013 114.377 43.5997C114.377 42.8768 113.803 42.3027 113.102 42.3027C112.4 42.3027 111.826 42.8768 111.826 43.5997C111.826 44.3013 112.4 44.8754 113.102 44.8754ZM119.991 56.0165C122.797 56.0165 124.519 54.188 124.519 51.1263C124.519 48.0859 122.797 46.2361 119.991 46.2361C117.205 46.2361 115.462 48.0859 115.462 51.1263C115.462 54.188 117.163 56.0165 119.991 56.0165ZM119.991 54.2305C118.502 54.2305 117.652 53.1036 117.652 51.1263C117.652 49.1702 118.502 48.0221 119.991 48.0221C121.458 48.0221 122.329 49.1702 122.329 51.1263C122.308 53.1036 121.458 54.2305 119.991 54.2305ZM125.774 55.8251H127.9V50.3609C127.9 48.9789 128.708 48.1072 129.962 48.1072C131.259 48.1072 131.855 48.83 131.855 50.2546V55.8251H133.981V49.7443C133.981 47.4906 132.833 46.2361 130.749 46.2361C129.346 46.2361 128.41 46.874 127.964 47.9371H127.815V46.4275H125.752C125.774 46.4275 125.774 55.8251 125.774 55.8251Z" fill="#080829"/>
<path fill-rule="evenodd" clip-rule="evenodd" d="M51.2941 39.6031C52.2934 40.4111 52.6549 40.3473 54.5259 40.2197L72.1518 39.1566C72.5345 39.1566 72.2156 38.7739 72.088 38.7314L69.1539 36.6265C68.6011 36.2013 67.8357 35.691 66.4111 35.8185L49.3593 37.073C48.7427 37.1368 48.6152 37.4557 48.8703 37.6896L51.2941 39.6031ZM52.3572 43.7066V62.2467C52.3572 63.246 52.8462 63.6075 53.9731 63.5437L73.3424 62.4168C74.4693 62.353 74.5969 61.6727 74.5969 60.8647V42.4522C74.5969 41.6442 74.2779 41.1977 73.5976 41.2615L53.3565 42.4522C52.6124 42.5159 52.3572 42.8987 52.3572 43.7066ZM71.4714 44.7059C71.599 45.2587 71.4714 45.8328 70.9186 45.8965L69.9831 46.0879V59.7804C69.1752 60.2056 68.431 60.4607 67.7931 60.4607C66.7939 60.4607 66.5387 60.1418 65.7946 59.2063L59.6925 49.6173V58.8874L61.6273 59.3126C61.6273 59.3126 61.6273 60.4395 60.0752 60.4395L55.7803 60.6946C55.6528 60.4395 55.7803 59.8229 56.2056 59.6953L57.3324 59.3764V47.1297L55.7803 47.0021C55.6528 46.4493 55.9717 45.6414 56.8434 45.5776L61.4572 45.2587L67.8144 54.954V46.3856L66.1985 46.1942C66.071 45.5138 66.5812 45.0036 67.1978 44.9398L71.4714 44.7059ZM47.9348 35.372L65.6882 34.0751C67.8569 33.8837 68.431 34.0113 69.7917 35.0106L75.4473 38.9865C76.3828 39.6669 76.7018 39.8582 76.7018 40.6024V62.4381C76.7018 63.7988 76.2127 64.6068 74.4693 64.7343L53.8668 65.9888C52.5486 66.0525 51.932 65.8612 51.2516 64.9895L47.0631 59.5678C46.3189 58.5685 46 57.8243 46 56.9526V37.5407C46 36.4139 46.5103 35.4996 47.9348 35.372Z" fill="#080829"/>
</svg>
