<svg width="44" height="44" viewBox="0 0 44 44" fill="none" xmlns="http://www.w3.org/2000/svg">
<path d="M13.7941 30.1176C14.3284 30.1176 14.7727 30.5026 14.8648 31.0103L14.8824 31.2059C14.8824 33.0089 16.344 34.4706 18.1471 34.4706C18.7481 34.4706 19.2353 34.9578 19.2353 35.5588C19.2353 36.0931 18.8503 36.5374 18.3427 36.6295L18.1471 36.6471C16.344 36.6471 14.8824 38.1087 14.8824 39.9118C14.8824 40.5128 14.3951 41 13.7941 41C13.2599 41 12.8156 40.615 12.7234 40.1074L12.7059 39.9118C12.7059 38.1087 11.2442 36.6471 9.44118 36.6471C8.84016 36.6471 8.35294 36.1598 8.35294 35.5588C8.35294 35.0246 8.7379 34.5803 9.24556 34.4881L9.44118 34.4706C11.2442 34.4706 12.7059 33.0089 12.7059 31.2059C12.7059 30.6049 13.1931 30.1176 13.7941 30.1176ZM25.8169 6.9317C26.1406 5.92473 27.5653 5.92473 27.889 6.9317L28.5564 9.00859C30.3937 14.7252 34.7101 19.3089 40.3062 21.4858C41.1652 21.8198 41.2265 22.9723 40.4903 23.4233L40.3062 23.5142C34.7103 25.6897 30.3939 30.2726 28.5572 35.9887L27.889 38.0683C27.5869 39.0081 26.3256 39.0708 25.8957 38.2563L25.8169 38.0683L25.1475 35.9862C23.3101 30.2715 18.9944 25.6897 13.3997 23.5142C12.5407 23.1802 12.4793 22.0277 13.2156 21.5767L13.3997 21.4858C18.9946 19.3088 23.3103 14.7263 25.1482 9.01103L25.8169 6.9317ZM8.44118 3C8.97541 3 9.41974 3.38496 9.51188 3.89262L9.52941 4.08824C9.52941 5.89128 10.9911 7.35294 12.7941 7.35294C13.3951 7.35294 13.8824 7.84016 13.8824 8.44118C13.8824 8.97541 13.4974 9.41974 12.9897 9.51188L12.7941 9.52941C10.9911 9.52941 9.52941 10.9911 9.52941 12.7941C9.52941 13.3951 9.04219 13.8824 8.44118 13.8824C7.90694 13.8824 7.46262 13.4974 7.37047 12.9897L7.35294 12.7941C7.35294 10.9911 5.89128 9.52941 4.08824 9.52941C3.48722 9.52941 3 9.04219 3 8.44118C3 7.90694 3.38496 7.46262 3.89262 7.37047L4.08824 7.35294C5.89128 7.35294 7.35294 5.89128 7.35294 4.08824C7.35294 3.48722 7.84016 3 8.44118 3Z" fill="#080829"/>
</svg>
