<svg width="44" height="44" viewBox="0 0 44 44" fill="none" xmlns="http://www.w3.org/2000/svg">
<path fill-rule="evenodd" clip-rule="evenodd" d="M31 0C34.3137 0 37 2.68629 37 6V38C37 41.3137 34.3137 44 31 44H13C9.68629 44 7 41.3137 7 38V6C7 2.68629 9.68629 0 13 0H31ZM29 4C29 3.44772 29.4477 3 30 3H31C32.6569 3 34 4.34315 34 6V38C34 39.6569 32.6569 41 31 41H13C11.3431 41 10 39.6569 10 38V6C10 4.34315 11.3431 3 13 3H14C14.5523 3 15 3.44772 15 4V4C15 5.10457 15.8954 6 17 6H27C28.1046 6 29 5.10457 29 4V4Z" fill="#080829"/>
<path fill-rule="evenodd" clip-rule="evenodd" d="M23.626 17.8011C23.7523 17.7383 23.8592 17.6249 23.9274 17.4831C23.9761 17.3697 24 17.2499 24 17.1249C23.9955 16.9946 23.9224 16.7498 23.8881 16.6533C23.6747 16.0172 22.9744 14.8013 22.5471 14.3349C22.5034 14.2842 22.4538 14.2309 22.4187 14.1932L22.4187 14.1932C22.3991 14.172 22.384 14.1558 22.377 14.1477C22.2696 14.0512 22.1388 14 21.998 14C21.8712 14 21.7448 14.0454 21.6429 14.1366C21.5722 14.1948 21.4583 14.3297 21.4583 14.3297C21.0157 14.8065 20.3502 15.9945 20.1363 16.5969C20.1313 16.5969 20.005 16.9545 20 17.1249V17.1476C20 17.4092 20.1263 17.6534 20.3308 17.7785C20.4147 17.8295 20.6185 17.8775 20.7174 17.9008L20.7174 17.9008L20.7174 17.9008C20.7504 17.9086 20.7717 17.9136 20.7729 17.9151C21.0644 17.9663 21.5116 18 22.0025 18C22.5178 18 22.9843 17.9663 23.2713 17.9035C23.2758 17.9035 23.5384 17.8413 23.626 17.8011ZM23.626 26.1989C23.7523 26.2617 23.8592 26.3751 23.9274 26.5169C23.9761 26.6303 24 26.7501 24 26.8751C23.9955 27.0054 23.9224 27.2502 23.8881 27.3467C23.6747 27.9828 22.9744 29.1987 22.5471 29.6651C22.5035 29.7157 22.4539 29.769 22.4188 29.8067L22.4187 29.8068C22.3991 29.8279 22.384 29.8442 22.377 29.8523C22.2696 29.9488 22.1388 30 21.998 30C21.8712 30 21.7448 29.9546 21.6429 29.8634C21.5722 29.8052 21.4583 29.6703 21.4583 29.6703C21.0157 29.1935 20.3502 28.0055 20.1363 27.4031C20.1313 27.4031 20.005 27.0455 20 26.8751V26.8524C20 26.5908 20.1263 26.3466 20.3308 26.2215C20.4147 26.1705 20.6185 26.1225 20.7174 26.0992L20.7174 26.0991C20.7504 26.0914 20.7717 26.0864 20.7729 26.0849C21.0644 26.0337 21.5116 26 22.0025 26C22.5178 26 22.9843 26.0337 23.2713 26.0965C23.2758 26.0965 23.5384 26.1587 23.626 26.1989ZM17.8011 20.374C17.7383 20.2477 17.6249 20.1408 17.4831 20.0726C17.3697 20.0239 17.2499 20 17.1249 20C16.9946 20.0045 16.7498 20.0776 16.6533 20.1119C16.0172 20.3253 14.8013 21.0256 14.3349 21.4529C14.2842 21.4966 14.2309 21.5462 14.1932 21.5813L14.1931 21.5813C14.172 21.6009 14.1558 21.616 14.1477 21.623C14.0512 21.7304 14 21.8612 14 22.002C14 22.1288 14.0454 22.2552 14.1366 22.3571C14.1948 22.4278 14.3297 22.5417 14.3297 22.5417C14.8065 22.9843 15.9945 23.6498 16.5969 23.8637C16.5969 23.8687 16.9545 23.995 17.1249 24H17.1476C17.4092 24 17.6534 23.8737 17.7785 23.6692C17.8295 23.5853 17.8775 23.3815 17.9008 23.2826C17.9086 23.2496 17.9136 23.2283 17.9151 23.2271C17.9663 22.9356 18 22.4884 18 21.9975C18 21.4822 17.9663 21.0157 17.9035 20.7287C17.9035 20.7242 17.8413 20.4616 17.8011 20.374ZM26.1989 20.374C26.2617 20.2477 26.3751 20.1408 26.5169 20.0726C26.6303 20.0239 26.7501 20 26.8751 20C27.0054 20.0045 27.2502 20.0776 27.3467 20.1119C27.9828 20.3253 29.1987 21.0256 29.6651 21.4529C29.7158 21.4966 29.7691 21.5462 29.8068 21.5813L29.8069 21.5813L29.8069 21.5813C29.828 21.6009 29.8442 21.616 29.8523 21.623C29.9488 21.7304 30 21.8612 30 22.002C30 22.1288 29.9546 22.2552 29.8634 22.3571C29.8052 22.4278 29.6703 22.5417 29.6703 22.5417C29.1935 22.9843 28.0055 23.6498 27.4031 23.8637C27.4031 23.8687 27.0455 23.995 26.8751 24H26.8524C26.5908 24 26.3466 23.8737 26.2215 23.6692C26.1705 23.5853 26.1225 23.3815 26.0992 23.2826L26.0992 23.2826C26.0914 23.2496 26.0864 23.2283 26.0849 23.2271C26.0337 22.9356 26 22.4884 26 21.9975C26 21.4822 26.0337 21.0157 26.0965 20.7287C26.0965 20.7242 26.1587 20.4616 26.1989 20.374ZM22.3924 19.563C22.3924 19.2519 22.217 19 22.0002 19C21.7835 19 21.6081 19.2519 21.6081 19.563L21.5 21.2825C21.5 21.3953 21.3953 21.5 21.2825 21.5L19.563 21.6081C19.2519 21.6081 19 21.7835 19 22.0002C19 22.217 19.2519 22.3924 19.563 22.3924L21.2825 22.5C21.3953 22.5 21.5 22.6047 21.5 22.7175L21.6081 24.437C21.6081 24.7481 21.7835 25 22.0002 25C22.217 25 22.3924 24.7481 22.3924 24.437L22.5 22.7175C22.5 22.6047 22.6047 22.5 22.7175 22.5L24.437 22.3924C24.7481 22.3924 25 22.217 25 22.0002C25 21.7835 24.7481 21.6081 24.437 21.6081L22.7175 21.5C22.6047 21.5 22.5 21.3953 22.5 21.2825L22.3924 19.563Z" fill="#080829"/>
</svg>
