<svg width="44" height="44" viewBox="0 0 44 44" fill="none" xmlns="http://www.w3.org/2000/svg">
<path fill-rule="evenodd" clip-rule="evenodd" d="M25.3608 5.01684L39.5007 17.1683L39.5302 17.1978C40.6973 18.3648 40.7904 20.2201 39.4681 21.3536L25.3457 33.49C24.4454 34.2616 23.2261 34.7745 22.0989 34.1813C21.0199 33.6133 20.6543 32.345 20.6543 31.1084V29.1127C20.6543 28.143 19.8682 27.3569 18.8985 27.3569V27.3569C18.4278 27.3569 18.0019 27.3919 17.6137 27.4871C12.4454 28.7556 9.0958 33.5844 6.90499 39.1021C6.79854 39.4133 6.65115 39.7236 6.44126 39.9798C6.23494 40.2315 5.84589 40.57 5.27575 40.57C4.68118 40.57 4.28742 40.2054 4.08399 39.9182C3.88277 39.6341 3.76448 39.2979 3.69171 38.9763C3.23064 37.1277 3 35.2765 3 33.3152C3 23.1536 9.33748 14.6393 19.0694 11.928C19.9834 11.6733 20.6543 10.8638 20.6543 9.91498V7.27508C20.6543 6.07869 21.0281 4.82096 22.0989 4.25739C23.2358 3.65901 24.4553 4.18328 25.3608 5.01684Z" fill="#080829"/>
</svg>
